<svg version="1.1" viewBox="0 0 512 512" xmlns="http://www.w3.org/2000/svg">
    <path id="XMLID_169_" d="m167.6046 150.7856-12.39767-62.33005c-1.35326-6.800598 1.52471-13.7475 7.28979-17.59926 5.76622-3.851768 13.2846-3.851768 19.05082 0l83.97653 56.11007c6e-3 5e-3 0.0114 8e-3 0.0171 0.0126 0.38746 0.25945 0.75778 0.54404 1.12239 0.83321 0.0743 0.0594 0.15658 0.11201 0.22973 0.17145 0.42861 0.35317 0.83893 0.72577 1.23097 1.11781 0.12001 0.12001 0.2263 0.25374 0.34288 0.37717 0.26403 0.28117 0.53148 0.56005 0.77721 0.85837 0.0983 0.11886 0.18173 0.24802 0.2766 0.37031 0.24802 0.31889 0.49719 0.63892 0.72235 0.97495 0.0572 0.0846 0.10401 0.17487 0.15887 0.26059 0.24916 0.38518 0.49033 0.77378 0.70635 1.17839 0.024 0.0457 0.0446 0.0949 0.0686 0.14058 0.2366 0.44919 0.45719 0.90751 0.65263 1.37841 0.0103 0.0229 0.0171 0.048 0.0263 0.0709 0.20231 0.49262 0.38518 0.99552 0.54291 1.50985 0.0137 0.0469 0.0229 0.096 0.0354 0.14287 0.14515 0.48919 0.27317 0.98295 0.37375 1.48928 1e-3 8e-3 5e-3 0.0148 6e-3 0.0229 0.0309 0.15659 0.0434 0.31546 0.0709 0.47319 0.0663 0.38746 0.13373 0.77492 0.17259 1.17153 0.0503 0.5029 0.0709 1.00695 0.0754 1.50985 1e-3 0.064 0.0103 0.12572 0.0103 0.19087v5e-3c0 0.57148-0.0297 1.14182-0.0857 1.70873-0.0354 0.35088-0.0994 0.69263-0.1543 1.03666-0.0331 0.20687-0.0537 0.41375-0.0949 0.61948-0.088 0.44233-0.20574 0.87436-0.32689 1.30526-0.0286 0.10401-0.0491 0.2103-0.08 0.31317-0.1383 0.4549-0.30402 0.89836-0.47775 1.33726-0.0309 0.0789-0.0549 0.16116-0.0869 0.24002-0.18516 0.44461-0.39432 0.87551-0.61377 1.29954-0.0377 0.0731-0.0686 0.14973-0.10743 0.22174-0.23545 0.43889-0.49376 0.86293-0.76579 1.27782-0.0331 0.0526-0.0617 0.10859-0.096 0.16116l-0.0149 0.0229c-0.016 0.0229-0.0297 0.0457-0.0457 0.0674l-56.05179 83.88738c-3.21971 4.81986-8.60076 7.6201-14.25268 7.6201-1.10981 0-2.23105-0.10744-3.34772-0.32917-6.8006-1.35326-12.11764-6.66916-13.46976-13.4709l-8.06014-40.52356c-27.31783 23.07403-44.69993 57.55935-44.69993 96.03359 0 69.30438 56.38325 125.6888 125.6876 125.6888 69.30552 0 125.6899-56.38439 125.6899-125.6888 0-33.5721-13.07544-65.13488-36.81467-88.87525-6.69544-6.69545-6.69544-17.55011 0-24.24556 6.69431-6.69545 17.55126-6.69545 24.24556 0 30.21638 30.21637 46.85784 70.39019 46.85784 113.1208 0 88.21118-71.76631 159.9775-159.9786 159.9775-88.21119 0-159.9764-71.76632-159.9764-159.9775 0-55.55575 28.47108-104.5795 71.5823-133.2689z" style="fill:#4d4d4d;stroke-width:1.14296"/>
</svg>
